<svg width="40" height="560" fill="none" xmlns="http://www.w3.org/2000/svg"><defs><symbol id="icon"><path d="M23 13.6731L22.2982 13L18.6491 16.5L15 20L22.2982 27L23 26.3269L16.4036 20L23 13.6731Z" fill="var(--icon-color, currentColor)"/><path fill-rule="evenodd" clip-rule="evenodd" d="M38 20C38 29.9411 29.9411 38 20 38C10.0589 38 2 29.9411 2 20C2 10.0589 10.0589 2 20 2C29.9411 2 38 10.0589 38 20ZM37 20C37 29.3888 29.3888 37 20 37C10.6112 37 3 29.3888 3 20C3 10.6112 10.6112 3 20 3C29.3888 3 37 10.6112 37 20Z" fill="var(--icon-color, currentColor)"/></symbol></defs><view viewBox="0 0 40 40" id="light-primary"/><use x="0" y="0" href="#icon" style="--icon-color:#141414"/><view viewBox="0 40 40 40" id="light-secondary"/><use x="0" y="40" href="#icon" style="--icon-color:#707070"/><view viewBox="0 80 40 40" id="light-inverted"/><use x="0" y="80" href="#icon" style="--icon-color:#ffffff"/><view viewBox="0 120 40 40" id="light-alert"/><use x="0" y="120" href="#icon" style="--icon-color:#bf2012"/><view viewBox="0 160 40 40" id="light-action"/><use x="0" y="160" href="#icon" style="--icon-color:#1c6bba"/><view viewBox="0 200 40 40" id="light-actionSecondary"/><use x="0" y="200" href="#icon" style="--icon-color:#1c6bba"/><view viewBox="0 240 40 40" id="light-positive"/><use x="0" y="240" href="#icon" style="--icon-color:#058a22"/><view viewBox="0 280 40 40" id="dark-primary"/><use x="0" y="280" href="#icon" style="--icon-color:#ffffff"/><view viewBox="0 320 40 40" id="dark-secondary"/><use x="0" y="320" href="#icon" style="--icon-color:#a3a3a3"/><view viewBox="0 360 40 40" id="dark-inverted"/><use x="0" y="360" href="#icon" style="--icon-color:#000000"/><view viewBox="0 400 40 40" id="dark-alert"/><use x="0" y="400" href="#icon" style="--icon-color:#ea2c1a"/><view viewBox="0 440 40 40" id="dark-action"/><use x="0" y="440" href="#icon" style="--icon-color:#1f78d1"/><view viewBox="0 480 40 40" id="dark-actionSecondary"/><use x="0" y="480" href="#icon" style="--icon-color:#ffffff"/><view viewBox="0 520 40 40" id="dark-positive"/><use x="0" y="520" href="#icon" style="--icon-color:#08b42e"/></svg>